<svg width="15" height="15" viewBox="0 0 15 15" fill="none" xmlns="http://www.w3.org/2000/svg">
<path d="M8 3.52832C9.96875 3.52832 11.5938 5.15332 11.5938 7.12207C11.5938 9.12207 9.96875 10.7158 8 10.7158C6 10.7158 4.40625 9.12207 4.40625 7.12207C4.40625 5.15332 6 3.52832 8 3.52832ZM8 9.46582C9.28125 9.46582 10.3125 8.43457 10.3125 7.12207C10.3125 5.84082 9.28125 4.80957 8 4.80957C6.6875 4.80957 5.65625 5.84082 5.65625 7.12207C5.65625 8.43457 6.71875 9.46582 8 9.46582ZM12.5625 3.40332C12.5625 2.93457 12.1875 2.55957 11.7188 2.55957C11.25 2.55957 10.875 2.93457 10.875 3.40332C10.875 3.87207 11.25 4.24707 11.7188 4.24707C12.1875 4.24707 12.5625 3.87207 12.5625 3.40332ZM14.9375 4.24707C15 5.40332 15 8.87207 14.9375 10.0283C14.875 11.1533 14.625 12.1221 13.8125 12.9658C13 13.7783 12 14.0283 10.875 14.0908C9.71875 14.1533 6.25 14.1533 5.09375 14.0908C3.96875 14.0283 3 13.7783 2.15625 12.9658C1.34375 12.1221 1.09375 11.1533 1.03125 10.0283C0.96875 8.87207 0.96875 5.40332 1.03125 4.24707C1.09375 3.12207 1.34375 2.12207 2.15625 1.30957C3 0.49707 3.96875 0.24707 5.09375 0.18457C6.25 0.12207 9.71875 0.12207 10.875 0.18457C12 0.24707 13 0.49707 13.8125 1.30957C14.625 2.12207 14.875 3.12207 14.9375 4.24707ZM13.4375 11.2471C13.8125 10.3408 13.7188 8.15332 13.7188 7.12207C13.7188 6.12207 13.8125 3.93457 13.4375 2.99707C13.1875 2.40332 12.7188 1.90332 12.125 1.68457C11.1875 1.30957 9 1.40332 8 1.40332C6.96875 1.40332 4.78125 1.30957 3.875 1.68457C3.25 1.93457 2.78125 2.40332 2.53125 2.99707C2.15625 3.93457 2.25 6.12207 2.25 7.12207C2.25 8.15332 2.15625 10.3408 2.53125 11.2471C2.78125 11.8721 3.25 12.3408 3.875 12.5908C4.78125 12.9658 6.96875 12.8721 8 12.8721C9 12.8721 11.1875 12.9658 12.125 12.5908C12.7188 12.3408 13.2188 11.8721 13.4375 11.2471Z" fill="white"/>
</svg>
