<svg width="27" height="28" viewBox="0 0 27 28" fill="none" xmlns="http://www.w3.org/2000/svg">
<path d="M23.2509 0.500271C23.8023 0.500432 24.3469 0.622144 24.8458 0.856738C25.3447 1.09133 25.7858 1.43304 26.1376 1.85752C26.4894 2.282 26.7432 2.77881 26.881 3.31256C27.0188 3.84631 27.0372 4.40388 26.9348 4.94555C26.8325 5.48722 26.6119 5.99966 26.2889 6.44638C25.9658 6.8931 25.5482 7.2631 25.0658 7.53004C24.5834 7.79698 24.0481 7.95428 23.4979 7.99074C22.9478 8.02721 22.3963 7.94194 21.8829 7.741L15.0486 14.5723C16.1721 16.1994 16.6707 18.1772 16.4527 20.1423L20.3888 21.3226C20.9459 20.6656 21.7123 20.2204 22.5591 20.0618C23.4059 19.9032 24.2815 20.041 25.0387 20.452C25.7958 20.8629 26.3883 21.522 26.7166 22.3183C27.0449 23.1147 27.089 23.9998 26.8413 24.8248C26.5937 25.6498 26.0695 26.3644 25.3569 26.8484C24.6442 27.3324 23.7866 27.5564 22.9283 27.4826C22.0699 27.4089 21.2631 27.0419 20.6436 26.4433C20.024 25.8448 19.6295 25.0513 19.5263 24.1961L15.5916 23.0143C14.7599 24.6365 13.4141 25.9375 11.7645 26.7141C10.1149 27.4906 8.25455 27.699 6.474 27.3067C4.69345 26.9143 3.09305 25.9433 1.92286 24.5454C0.752668 23.1475 0.0786088 21.4014 0.00600016 19.5799L0 19.247L0.00600016 18.9155C0.0644646 17.4557 0.5097 16.0376 1.29617 14.8062C2.08264 13.5749 3.18213 12.5744 4.48218 11.9073L3.30013 7.97196C2.43539 7.86816 1.63382 7.46643 1.0332 6.83584C0.432579 6.20524 0.0704303 5.38517 0.00900043 4.51657L0 4.24961L0.00750047 4.00366C0.0480868 3.38574 0.241121 2.7875 0.569362 2.26237C0.897602 1.73723 1.35083 1.30156 1.88856 0.994253C2.42628 0.68695 3.03177 0.517589 3.65093 0.501298C4.2701 0.485007 4.88365 0.622293 5.4368 0.900894C5.98996 1.17949 6.46547 1.59073 6.82089 2.09788C7.1763 2.60503 7.40054 3.19229 7.47358 3.80721C7.54662 4.42214 7.46618 5.04557 7.23945 5.62183C7.01272 6.19809 6.64675 6.70924 6.17425 7.10961L7.3548 11.0464C9.32035 10.8285 11.2986 11.3269 12.926 12.4502L19.7588 5.61737C19.6178 5.25863 19.5333 4.8802 19.5083 4.49557L19.5008 4.24961L19.5083 4.00366C19.5707 3.0538 19.9922 2.16325 20.6873 1.51265C21.3823 0.862056 22.2988 0.500124 23.2509 0.500271Z" fill="#E85814"/>
</svg>
