<svg fill="none" height="33" viewBox="0 0 129 33" width="129" xmlns="http://www.w3.org/2000/svg"><path d="m11.1471 20.7637c0 .6538.2452 1.0625.7519 1.1605l.572.0981c.5067.0654.6538.3432.6538 1.0297v.5394h-8.72807v-.5394c0-.6865.19614-.9807.6211-1.0297l.53938-.0981c.58841-.2125.75186-.5067.71917-1.1605v-16.62254h-1.53641c-1.81426 0-2.82764.71917-2.97474 2.10847l-.06538.474c-.09807.75185-.27786.9153-1.062406.9153h-.637444v-5.63893c.408618.31055 1.43834.65379 1.94502.65379h13.58248c.5067 0 1.5037-.34324 1.8796-.65379v5.62259h-.7355c-.5394 0-.7518-.24518-.8499-.91531l-.0654-.474c-.3432-1.63447-1.1278-2.14116-3.3833-2.10847h-1.2259zm20.8232-4.3967c0 4.3967-3.3507 7.633-7.8782 7.633-4.5438 0-7.8781-3.2689-7.8781-7.7801 0-4.2987 3.3506-7.46953 7.9435-7.46953s7.8128 3.13823 7.8128 7.61663zm-10.6568-.0817c0 4.1189.9971 6.2437 2.893 6.2437 1.7816 0 2.6969-1.9124 2.6969-5.737 0-4.266-.9807-6.5543-2.8276-6.5543-1.7979-.0163-2.7623 2.1575-2.7623 6.0476zm27.639 4.3804c0 .6865.1961.9807.7191 1.1605l.3106.098c.5394.1635.6211.3433.6211 1.0624v.5884h-6.211v-1.2912c-.7192.6538-.948.8172-1.2586.997-.7191.4086-1.9123.6865-3.0401.6865-2.7622 0-4.4948-1.8469-4.4948-4.8053v-7.1917c0-.7519-.0654-.8499-.7191-1.1605l-.2125-.0981c-.6538-.2451-.7192-.3432-.7192-1.06237v-.53937l6.3418-.19614v10.41158c0 1.5691.6864 2.5661 1.8142 2.5661.7846 0 1.7326-.4413 2.1575-.997v-8.8915c0-.7192-.1961-.9971-.7191-1.1605l-.2779-.0981c-.5394-.1961-.6211-.3432-.6211-1.06238v-.53938l6.3091-.19613zm10.0683-7.2734c.1635-.2779.2452-.5067.3106-.5884.8499-1.6672 1.1604-2.1575 1.7815-2.795.7846-.81722 1.6672-1.25853 2.5498-1.25853 1.3566 0 2.3537.99703 2.3537 2.38633 0 1.2585-.8827 2.2883-2.0104 2.2883-.5721 0-.9971-.2125-1.5038-.85-.1961-.2124-.4413-.3432-.6864-.3432-.9971 0-2.2883 3.1382-2.2883 5.6553v2.893c0 .6211.2452 1.0624.6211 1.1605l.5394.098c.3759.0654.5067.3433.5067 1.0297v.5394h-8.009v-.5394c0-.6864.0981-.8826.6212-1.0297l.3105-.098c.5394-.1962.7192-.474.7192-1.1605v-8.7771c0-.6865-.2125-1.0297-.7192-1.1605l-.3759-.0981c-.4413-.1307-.5721-.3759-.5721-1.06238v-.53938l5.8351-.21248v4.46214zm14.6612 7.3714c0 .6865.1962.9807.7846 1.1605l.3105.0981c.4413.1307.5721.3432.5721 1.0297v.5394h-8.0089v-.5394c0-.7192.0981-.8826.6211-1.0297l.3105-.0981c.5394-.1961.7192-.474.7192-1.1605v-15.28227c0-.68648-.1961-.98069-.7192-1.16048l-.3105-.09807c-.5394-.16344-.6211-.31055-.6211-1.0624v-.50669l6.3417-.21248zm19.3032 1.1278c.1307.1962.1961.3106.1961.4086 0 .7519-1.6018 1.6018-3.0074 1.6018-1.373 0-2.3864-.7191-3.0075-2.1902-1.471 1.7653-2.5661 2.2883-4.7072 2.2883-2.9421 0-4.9525-1.6999-4.9525-4.1679 0-1.9777 1.2259-3.3834 3.8247-4.3967.8499-.3433.948-.3433 4.9851-1.2586-.0327-1.3239-.0981-1.8796-.3105-2.4517-.376-.9807-1.0951-1.5037-2.0104-1.5037-.7846 0-1.3566.3759-1.3566.9153 0 .0981.0326.2452.0653.4413l.0327.5394c0 1.0951-.8826 1.8796-2.0758 1.8796-1.2258-.0163-2.2065-.8826-2.2065-1.994 0-1.8797 2.3863-3.26897 5.5899-3.26897 2.419 0 4.5438.78454 5.7043 2.10847.997 1.0951 1.3239 2.2556 1.3239 4.7727v3.8573c0 1.471 0 1.5364.1962 1.8797.1307.2778.3432.4413.5884.4413.2451 0 .5393-.1308.7518-.4087zm-6.587-6.2763c-2.419.3759-3.8246 1.8469-3.8246 3.9881 0 1.4056.7518 2.5171 1.6671 2.5171 1.2913 0 2.1575-1.5691 2.1575-3.8574zm15.0698-5.2304c1.373-1.22581 2.55-1.66712 4.299-1.66712 1.732 0 3.007.474 3.922 1.47102.72.7846 1.03 1.8143 1.03 3.4161v7.1589c0 .6865.196.9807.719 1.1605l.311.0981c.539.1634.621.3432.621 1.0297v.5394h-7.927v-.5394c0-.7192.065-.8172.621-1.0297l.212-.0981c.654-.3105.752-.4413.752-1.1605v-7.78c0-1.4057-.686-2.1575-1.977-2.1575-.85 0-1.847.4413-2.387 1.0624v8.8751c0 .6538.213 1.0298.752 1.1605l.441.0981c.474.0981.621.3432.621 1.0297v.5394h-8.1555v-.5394c0-.6865.098-.8826.6211-1.0297l.3105-.0981c.5394-.1961.7192-.474.7192-1.1605v-8.7607c0-.7192-.1962-.9971-.7192-1.1605l-.3105-.0981c-.5394-.1961-.6211-.3432-.6211-1.06238v-.53938l6.1125-.21248v1.45464zm17.538 5.6717c.065 4.0861 1.602 6.2763 4.331 6.2763 1.471 0 2.55-.6211 4.087-2.419l1.16.997c-1.536 2.0431-3.645 3.0729-6.309 3.0729-4.675 0-8.189-3.4161-8.189-7.9763 0-4.2006 3.04-7.25703 7.274-7.25703 4.331 0 6.995 2.76223 7.093 7.27343h-9.447zm4.838-1.5691c0-2.7296-.85-4.2333-2.354-4.2333-1.503 0-2.386 1.5037-2.484 4.2333z" fill="#78716c"/></svg>