<svg width="16" height="14" viewBox="0 0 16 14" fill="none" xmlns="http://www.w3.org/2000/svg">
<path d="M14.3438 3.87207C14.3438 4.02832 14.3438 4.15332 14.3438 4.30957C14.3438 8.65332 11.0625 13.6221 5.03125 13.6221C3.15625 13.6221 1.4375 13.0908 0 12.1533C0.25 12.1846 0.5 12.2158 0.78125 12.2158C2.3125 12.2158 3.71875 11.6846 4.84375 10.8096C3.40625 10.7783 2.1875 9.84082 1.78125 8.52832C2 8.55957 2.1875 8.59082 2.40625 8.59082C2.6875 8.59082 3 8.52832 3.25 8.46582C1.75 8.15332 0.625 6.84082 0.625 5.24707V5.21582C1.0625 5.46582 1.59375 5.59082 2.125 5.62207C1.21875 5.02832 0.65625 4.02832 0.65625 2.90332C0.65625 2.27832 0.8125 1.71582 1.09375 1.24707C2.71875 3.21582 5.15625 4.52832 7.875 4.68457C7.8125 4.43457 7.78125 4.18457 7.78125 3.93457C7.78125 2.12207 9.25 0.65332 11.0625 0.65332C12 0.65332 12.8438 1.02832 13.4688 1.68457C14.1875 1.52832 14.9062 1.24707 15.5312 0.87207C15.2812 1.65332 14.7812 2.27832 14.0938 2.68457C14.75 2.62207 15.4062 2.43457 15.9688 2.18457C15.5312 2.84082 14.9688 3.40332 14.3438 3.87207Z" fill="white"/>
</svg>
